<svg width="490" height="436" viewBox="0 0 490 436" fill="none" xmlns="http://www.w3.org/2000/svg">
<path d="M157.873 281.87H157.895C157.914 281.87 157.933 281.867 157.951 281.867H418.223C424.63 281.867 430.264 278.085 432.025 272.603L489.447 93.775C490.684 89.9197 489.817 85.775 487.106 82.5749C484.392 79.3749 480.149 77.4922 475.645 77.4922H124.765L114.504 36.401C113.042 30.5565 107.217 26.3984 100.488 26.3984H14.3555C6.42632 26.3984 0 32.1165 0 39.1719C0 46.2272 6.42632 51.9453 14.3555 51.9453H88.974C90.7909 59.2268 138.082 248.586 140.803 259.48C125.547 265.381 114.844 278.917 114.844 294.641C114.844 315.77 134.164 332.961 157.91 332.961H418.223C426.152 332.961 432.578 327.243 432.578 320.187C432.578 313.132 426.152 307.414 418.223 307.414H157.91C149.996 307.414 143.555 301.683 143.555 294.641C143.555 287.609 149.974 281.887 157.873 281.87V281.87ZM456.612 103.039L407.393 256.32H169.424L131.143 103.039H456.612Z" fill="#A9B8B5"/>
<path d="M143.555 371.281C143.555 392.411 162.875 409.602 186.621 409.602C210.367 409.602 229.688 392.411 229.688 371.281C229.688 350.152 210.367 332.961 186.621 332.961C162.875 332.961 143.555 350.152 143.555 371.281ZM186.621 358.508C194.535 358.508 200.977 364.239 200.977 371.281C200.977 378.323 194.535 384.055 186.621 384.055C178.707 384.055 172.266 378.323 172.266 371.281C172.266 364.239 178.707 358.508 186.621 358.508Z" fill="#A9B8B5"/>
<path d="M346.445 371.281C346.445 392.411 365.765 409.602 389.512 409.602C413.258 409.602 432.578 392.411 432.578 371.281C432.578 350.152 413.258 332.961 389.512 332.961C365.765 332.961 346.445 350.152 346.445 371.281ZM389.512 358.508C397.426 358.508 403.867 364.239 403.867 371.281C403.867 378.323 397.426 384.055 389.512 384.055C381.598 384.055 375.156 378.323 375.156 371.281C375.156 364.239 381.598 358.508 389.512 358.508Z" fill="#A9B8B5"/>
</svg>
